<svg width="27" height="27" viewBox="0 0 27 27" fill="none" xmlns="http://www.w3.org/2000/svg">
<path d="M13.7705 10.0403C13.142 10.0403 12.5277 10.2266 12.0052 10.5758C11.4827 10.9249 11.0754 11.4211 10.8349 12.0017C10.5945 12.5823 10.5315 13.2212 10.6541 13.8375C10.7767 14.4539 11.0793 15.02 11.5237 15.4644C11.9681 15.9088 12.5342 16.2114 13.1506 16.334C13.7669 16.4566 14.4058 16.3937 14.9864 16.1532C15.567 15.9127 16.0632 15.5054 16.4123 14.9829C16.7615 14.4604 16.9478 13.8461 16.9478 13.2177C16.9468 12.3753 16.6117 11.5677 16.0161 10.9721C15.4204 10.3764 14.6128 10.0413 13.7705 10.0403V10.0403Z" fill="#510303"/>
<path d="M17.5085 5.12402H10.0324C8.87761 5.12536 7.77048 5.5847 6.95389 6.40128C6.13731 7.21786 5.67797 8.325 5.67664 9.47982V16.9559C5.67797 18.1107 6.13731 19.2178 6.95389 20.0344C7.77048 20.851 8.87761 21.3103 10.0324 21.3117H17.5085C18.6633 21.3103 19.7704 20.851 20.587 20.0344C21.4036 19.2178 21.8629 18.1107 21.8643 16.9559V9.47982C21.8629 8.325 21.4036 7.21786 20.587 6.40128C19.7704 5.5847 18.6633 5.12536 17.5085 5.12402V5.12402ZM13.7705 18.0738C12.81 18.0738 11.8712 17.789 11.0726 17.2554C10.2741 16.7218 9.65167 15.9635 9.28414 15.0761C8.9166 14.1888 8.82044 13.2125 9.00781 12.2705C9.19517 11.3285 9.65766 10.4633 10.3368 9.78417C11.0159 9.10505 11.8811 8.64256 12.8231 8.45519C13.7651 8.26783 14.7414 8.36399 15.6288 8.73153C16.5161 9.09906 17.2745 9.72146 17.808 10.52C18.3416 11.3186 18.6264 12.2574 18.6264 13.2178C18.6249 14.5053 18.1128 15.7395 17.2025 16.6499C16.2922 17.5602 15.0579 18.0723 13.7705 18.0738V18.0738ZM19.1064 9.09784C18.8693 9.09784 18.6375 9.02756 18.4404 8.89587C18.2432 8.76418 18.0895 8.57699 17.9987 8.35798C17.9079 8.13896 17.8841 7.89794 17.9302 7.66537C17.9763 7.43281 18.0904 7.21914 18.2579 7.05136C18.4254 6.88359 18.6389 6.76925 18.8714 6.7228C19.1039 6.67634 19.345 6.69984 19.5641 6.79035C19.7833 6.88085 19.9707 7.03429 20.1026 7.23126C20.2346 7.42824 20.3052 7.65992 20.3056 7.89702C20.3059 8.05468 20.2751 8.21085 20.2149 8.3566C20.1548 8.50234 20.0665 8.6348 19.9551 8.74639C19.8437 8.85798 19.7115 8.94651 19.5658 9.00691C19.4202 9.06731 19.2641 9.0984 19.1064 9.0984V9.09784Z" fill="#510303"/>
<path d="M26.9242 6.20212C26.9227 5.72706 26.8792 5.25307 26.7943 4.78566C26.6856 4.21493 26.5327 3.65876 26.2594 3.14292C25.9747 2.59944 25.6042 2.10544 25.1622 1.67998C24.4945 1.02634 23.6697 0.555688 22.7673 0.313362C21.9367 0.0893268 21.087 0.0422794 20.2351 0.0433996C20.2323 0.0396454 20.2306 0.0351908 20.2301 0.0305176H7.30662C7.30662 0.0349983 7.30662 0.039479 7.30662 0.0433996C6.82215 0.052361 6.33655 0.0484403 5.85488 0.10837C5.32667 0.164216 4.80665 0.280735 4.30512 0.455624C3.5251 0.743344 2.82109 1.2054 2.24679 1.80656C1.58848 2.47557 1.11441 3.3035 0.870659 4.20989C0.649985 5.03434 0.601817 5.87503 0.600697 6.72188L0.591736 19.6974C0.607418 20.2827 0.612459 20.8736 0.711034 21.4539C0.815771 22.07 0.965314 22.6698 1.25096 23.2288C1.63087 23.9778 2.17223 24.6331 2.83601 25.1476C3.30983 25.5253 3.8466 25.8163 4.42161 26.0074C5.26847 26.2807 6.1422 26.3854 7.02882 26.3905C7.58219 26.3938 8.13443 26.4078 8.6878 26.4056C12.7059 26.3888 16.7245 26.4347 20.7426 26.381C21.2734 26.3693 21.8023 26.3131 22.3237 26.2129C23.3097 26.0392 24.2274 25.5925 24.9723 24.9236C25.8562 24.135 26.4527 23.1705 26.7221 22.0061C26.8985 21.245 26.9422 20.4726 26.95 19.698V19.5434C26.9494 19.4829 26.9265 6.37575 26.9242 6.20212ZM23.5424 16.9558C23.5405 18.5555 22.9042 20.0892 21.7731 21.2204C20.6419 22.3517 19.1083 22.9881 17.5086 22.9902H10.0326C8.43274 22.9883 6.89899 22.3519 5.76775 21.2206C4.6365 20.0894 4.00011 18.5556 3.99819 16.9558V9.47975C4.00011 7.87993 4.6365 6.34618 5.76775 5.21493C6.89899 4.08368 8.43274 3.4473 10.0326 3.44537H17.5086C19.1084 3.4473 20.6422 4.08368 21.7734 5.21493C22.9047 6.34618 23.5411 7.87993 23.543 9.47975L23.5424 16.9558Z" fill="#510303"/>
</svg>
