<svg width="29" height="24" viewBox="0 0 29 24" fill="none" xmlns="http://www.w3.org/2000/svg">
<path d="M28.4691 3.68304C27.4375 4.14573 26.3273 4.45783 25.1624 4.59749C26.3518 3.87904 27.2638 2.741 27.6938 1.38341C26.5813 2.04956 25.3498 2.53294 24.038 2.79388C22.9882 1.66504 21.4918 0.959229 19.8359 0.959229C16.6569 0.959229 14.0793 3.56004 14.0793 6.76838C14.0793 7.22302 14.13 7.66617 14.2286 8.09207C9.44377 7.84952 5.20125 5.53723 2.36169 2.02254C1.86612 2.88009 1.58245 3.87789 1.58245 4.9435C1.58245 6.95863 2.59865 8.73695 4.14346 9.77843C3.20017 9.74797 2.31214 9.48645 1.53574 9.05135C1.53518 9.07549 1.53518 9.10021 1.53518 9.12492C1.53518 11.939 3.51973 14.2863 6.15365 14.8208C5.67061 14.953 5.16194 15.0243 4.63675 15.0243C4.26536 15.0243 3.90479 14.9881 3.55334 14.9197C4.28644 17.2274 6.41226 18.9074 8.93112 18.954C6.9608 20.5122 4.47897 21.441 1.78125 21.441C1.31701 21.441 0.858467 21.4134 0.407898 21.3594C2.95638 23.0084 5.9822 23.9694 9.23301 23.9694C19.8228 23.9694 25.613 15.118 25.613 7.44143C25.613 7.18969 25.6079 6.93851 25.597 6.68906C26.7215 5.87175 27.6978 4.84809 28.4691 3.68304Z" fill="#510303"/>
</svg>
